<svg xmlns="http://www.w3.org/2000/svg" viewBox="0 0 1200 240" width="1200" height="240" preserveAspectRatio="none" role="img" aria-label="Generated SVG wave">
<path d="M 0 240 L 0 156 L 4 161.08207910419137 L 8 166.08932549340656 L 12 170.9969675864321 L 16 175.78180343492596 L 20 180.42204591091553 L 24 184.89713683181097 L 28 189.18754074508095 L 32 193.2745296619527 L 36 197.1399702435968 L 40 200.76612479625095 L 44 204.13547692604573 L 48 207.23059185275508 L 52 210.03402020724718 L 56 212.52825267253138 L 60 214.69573111411657 L 64 216.51891993058848 L 68 217.98043929476242 L 72 219.06325980902278 L 76 219.7509559280931 L 80 220.02801337228595 L 84 219.8801837274999 L 88 219.29487756570944 L 92 218.2615857781488 L 96 216.77231744376738 L 100 214.8220415014903 L 104 212.40911879145955 L 108 209.5357107032264 L 112 206.20815073286676 L 116 202.43726571032028 L 120 198.23863430591888 L 124 193.63277164306027 L 128 188.64523040372006 L 132 183.30661067654125 L 136 177.6524729163165 L 140 171.7231507039345 L 144 165.56346245634154 L 148 159.22232377139505 L 152 152.75226463463983 L 156 146.2088581952377 L 160 139.65007016890087 L 164 133.135540082114 L 168 126.7258074744195 L 172 120.48149777083285 L 176 114.4624837793185 L 180 108.72703962276017 L 184 103.33100435540005 L 188 98.32697252576911 L 192 93.76352852866901 L 196 89.68454074640582 L 200 86.12853023425404 L 204 83.12812708798597 L 208 80.70962568325196 L 212 78.89264774762887 L 216 77.68991977386088 L 220 77.10716867084051 L 224 77.14313684515784 L 228 77.78971518096839 L 232 79.03218971039666 L 236 80.84959521018285 L 240 83.2151665889448 L 244 86.09687680429211 L 248 89.45804822431549 L 252 93.2580228696421 L 256 97.45287587674548 L 260 101.99615583648695 L 264 106.83963539874327 L 268 111.93405569770005 L 272 117.22984873463389 L 276 122.67782283612942 L 280 128.22979765531147 L 284 133.83917686161388 L 288 139.4614486219575 L 292 145.0546061567888 L 296 150.57948299635308 L 300 155.99999999999991 L 304 161.28332366630568 L 308 166.39993768619038 L 312 171.32363200855988 L 316 176.03141583538365 L 320 180.50336288288602 L 324 184.72239888687307 L 328 188.67404265056996 L 332 192.34611289950047 L 336 195.7284137969391 L 340 198.81241217317643 L 344 201.5909193312087 L 348 204.05778972051797 L 352 206.2076478400546 L 356 208.03565347214263 L 360 209.537313800675 L 364 210.70834917746808 L 368 211.54461732434427 L 372 212.04209865470037 L 376 212.1969432295304 L 380 212.00557769308594 L 384 211.46486842617583 L 388 210.57233517195712 L 392 209.32640758746507 L 396 207.72671560606952 L 400 205.77440320656132 L 404 203.47245421049794 L 408 200.82601809840403 L 412 197.84272356512878 L 416 194.53296763242588 L 420 190.910168599433 L 424 186.9909719255954 L 428 182.7953992821721 L 432 178.3469324450368 L 436 173.67252539205688 L 440 168.80253986487358 L 444 163.7706017037689 L 448 158.6133774077258 L 452 153.37027254958565 L 456 148.08305582745626 L 460 142.79541459829534 L 464 137.55244966062267 L 468 132.40011877760134 L 472 127.384639911987 L 476 122.55186634040777 L 480 117.94664669391443 L 484 113.61218351148915 L 488 109.58940407948047 L 492 105.91635715884945 L 496 102.62764867962157 L 500 99.75392862363015 L 504 97.32144014718727 L 508 95.3516405477553 L 512 93.86090199337784 L 516 92.86029805708856 L 520 92.35548008206027 L 524 92.34664530153506 L 528 92.82859650700058 L 532 93.79089095524284 L 536 95.21807418502743 L 540 97.08999252952512 L 544 99.38217640918053 L 548 102.06628501387416 L 552 105.11060176858496 L 556 108.48056905133896 L 560 112.13935001573095 L 564 116.0484050737077 L 568 120.1680706196463 L 572 124.45812791725102 L 576 128.8783507110942 L 580 133.3890210414416 L 584 137.9514039038337 L 588 142.52817276702294 L 592 147.08377950247638 L 596 151.58476394010106 L 600 155.9999999999999 L 604 160.3008771097089 L 608 164.46141735160595 L 612 168.45833044883312 L 616 172.27101024594793 L 620 175.88147773263827 L 624 179.27427686048313 L 628 182.43633038534125 L 632 185.35676370978712 L 636 188.0267051866872 L 640 190.43907156973228 L 644 192.58834726035587 L 648 194.47036571128388 L 652 196.08210082035328 L 656 197.4214754060577 L 660 198.4871929260943 L 664 199.2785975143494 L 668 199.7955662063767 L 672 200.03843593721314 L 676 200.0079665684998 L 680 199.7053398747131 L 684 199.1321931302968 L 688 198.29068472795046 L 692 197.18358815747595 L 696 195.81440971452884 L 700 194.1875245146158 L 704 192.3083247794658 L 708 190.1833739542643 L 712 187.8205600127217 L 716 185.22924131378917 L 720 182.4203785840711 L 724 179.40664700274348 L 728 176.20252294476882 L 732 172.82434067225984 L 736 169.29031512779216 L 740 165.62052794887362 L 744 161.83687485894168 L 748 157.96297366517393 L 752 154.02403317474005 L 756 150.04668439726527 L 760 146.05877640218353 L 764 142.08914011780058 L 768 138.16732416996788 L 772 134.32330754190056 L 776 130.5871943768927 L 780 126.98889663128288 L 784 123.55781050982444 L 788 120.32249267841227 L 792 117.310342153695 L 796 114.54729352382418 L 800 112.05752677214656 L 804 109.86319847237469 L 808 107.98419851916624 L 812 106.4379358739169 L 816 105.23915606538321 L 820 104.39979241273296 L 824 103.92885215900162 L 828 103.83233793916564 L 832 104.11320428102576 L 836 104.77134816855077 L 840 105.80363210319526 L 844 107.20393759267472 L 848 108.963246588862 L 852 111.06974809314977 L 856 113.50896695121965 L 860 116.2639117682192 L 864 119.31523888479131 L 868 122.64142945577906 L 872 126.21897685534798 L 876 130.0225818809368 L 880 134.0253535281686 L 884 138.19901344278546 L 888 142.51410250633796 L 892 146.94018836249683 L 896 151.44607302386996 L 900 155.99999999999997 L 904 160.56986064251726 L 908 165.12339960248212 L 912 169.62841942970192 L 916 174.0529844093571 L 920 178.36562372582526 L 924 182.53553396871 L 928 186.53278085640085 L 932 190.32849985563385 L 936 193.89509513176597 L 940 197.20643598625617 L 944 200.23804963940506 L 948 202.96730891306026 L 952 205.37361307570484 L 956 207.43855984691632 L 960 209.1461063347902 L 964 210.4827165123641 L 968 211.43749273934634 L 972 212.00228881310548 L 976 212.17180209474174 L 980 211.94364240582155 L 984 211.3183756294054 L 988 210.2995402723335 L 992 208.89363564797446 L 996 207.11008081021419 L 1000 204.96114389786567 L 1004 202.46184211885569 L 1008 199.62981319840327 L 1012 196.48515971633736 L 1016 193.0502683462742 L 1020 189.3496065639369 L 1024 185.4094998943416 L 1028 181.25789319995354 L 1032 176.9240998581838 L 1036 172.43854292314006 L 1040 167.8324925027826 L 1044 163.1378036014383 L 1048 158.38665857561367 L 1052 153.61131812890537 L 1056 148.84388443420778 L 1060 144.11607952714974 L 1064 139.45904157626313 L 1068 134.90314101889481 L 1072 130.47781787635074 L 1076 126.21144084880285 L 1080 122.13118806338991 L 1084 118.262948632155 L 1088 114.63124349460138 L 1092 111.25916339687265 L 1096 108.16832131856265 L 1100 105.37881621951956 L 1104 102.90920466036246 L 1108 100.77647666582125 L 1112 98.99603215938922 L 1116 97.58165440644143 L 1120 96.54547716140121 L 1124 95.89794261811959 L 1128 95.64774780178506 L 1132 95.80177770092405 L 1136 96.36502420043203 L 1140 97.34049071808386 L 1144 98.72908334121851 L 1148 100.52949017824565 L 1152 102.73805155046304 L 1156 105.34862452173236 L 1160 108.3524460653282 L 1164 111.73799986835293 L 1168 115.4908923462906 L 1172 119.59374385839263 L 1176 124.02610135752391 L 1180 128.76437875941787 L 1184 133.78183116505002 L 1188 139.04856871092133 L 1192 144.53161525666158 L 1196 150.19501635502468 L 1200 155.9999999999997 L 1200 240 Z" fill="#1056ff" fill-opacity="1" stroke="none" />
<path d="M 0 240 L 0 189.92043999245757 L 4 193.6094395959576 L 8 197.23261385528173 L 12 200.75992963517473 L 16 204.16139299282085 L 20 207.40738781916832 L 24 210.4690200375751 L 28 213.3184613162874 L 32 215.92928619831727 L 36 218.27679663908356 L 40 220.3383281663023 L 44 222.09353223218727 L 48 223.52462980588942 L 52 224.61663184205986 L 56 225.35752294453576 L 60 225.7384053051695 L 64 225.75360081761352 L 68 225.40071012393483 L 72 224.6806282269165 L 76 223.59751717118252 L 80 222.15873714051008 L 84 220.3747381163541 L 88 218.25891497455365 L 92 215.82742954612758 L 96 213.0990037190079 L 100 210.09468809819907 L 104 206.83761106288333 L 108 203.35271325433268 L 112 199.66647259543294 L 116 195.80662488189162 L 120 191.8018848009069 L 124 187.68167193260194 L 128 183.4758458833183 L 132 179.214454201115 L 136 174.9274961481367 L 140 170.64470476945849 L 144 166.3953490226283 L 148 162.20805703641642 L 152 158.11066087165253 L 156 154.13006248174352 L 160 150.29211993506883 L 164 146.62155238424313 L 168 143.1418617647685 L 172 139.87526879219914 L 176 136.84266051433534 L 180 134.06354647192222 L 184 131.5560204334352 L 188 129.3367246990042 L 192 127.42081411414657 L 196 125.82191719110622 L 200 124.55209209629069 L 204 123.62177571551044 L 208 123.03972454059107 L 212 122.81294671513336 L 216 122.9466252154059 L 220 123.44403280472491 L 224 124.30644006536698 L 228 125.53301845983634 L 232 127.12074098209763 L 236 129.06428350888945 L 240 131.35593043248528 L 244 133.9854885321828 L 248 136.9402133076737 L 252 140.20475214138088 L 256 143.76110867015254 L 260 147.58863262413635 L 264 151.66403913067833 L 268 155.96146108591526 L 272 160.45253767236878 L 276 165.10654145699274 L 280 169.89054575395537 L 284 174.76963309634516 L 288 179.7071447501798 L 292 184.66497024415534 L 296 189.6038749029232 L 300 194.48386238501286 L 304 199.26456826416756 L 308 203.90567978015602 L 312 208.36737604675096 L 316 212.6107822638911 L 320 216.59843085952542 L 324 220.2947220032172 L 328 223.666375604178 L 332 226.68286674343454 L 336 229.31683650187827 L 340 231.5444703374417 L 344 233.34583653570476 L 348 234.7051778045919 L 352 235.61114979685703 L 356 236.05700121094767 L 360 236.04069112482313 L 364 235.56494033801164 L 368 234.63721471112592 L 372 233.26963977310047 L 376 231.47884718644792 L 380 229.28575499039516 L 384 226.71528485074072 L 388 223.79602080364685 L 392 220.55981515912686 L 396 217.04134830101077 L 400 213.27765005820214 L 404 209.30759110443626 L 408 205.1713534513214 L 412 200.9098895169059 L 416 196.5643794684064 L 420 192.1756965467352 L 424 187.78388988055602 L 428 183.4276938921674 L 432 179.14407279478348 L 436 174.9678078936742 L 440 170.93113444945655 L 444 167.06343376194488 L 448 163.3909849122449 L 452 159.93677928704443 L 456 156.7203996324563 L 460 153.7579639770315 L 464 151.06213335725687 L 468 148.64218090661006 L 472 146.50411856296978 L 476 144.6508764392866 L 480 143.08252881708484 L 484 141.79655978685363 L 488 140.78816079542082 L 492 140.05055178563788 L 496 139.57531724128395 L 500 139.3527482883283 L 504 139.37218205582454 L 508 139.6223297638556 L 512 140.09158547511248 L 516 140.7683081089138 L 520 141.64107015514756 L 524 142.69886751983745 L 528 143.9312860591356 L 532 145.32862158666578 L 536 146.88195143991862 L 540 148.58315703269102 L 544 150.42489816922807 L 548 152.40054121843883 L 552 154.50404451060902 L 556 156.72980549314443 L 560 159.07247523694352 L 564 161.52674679482152 L 568 164.08712465533506 L 572 166.7476830908296 L 576 169.50182155355793 L 580 172.34202541920814 L 584 175.25964030917999 L 588 178.24466794274454 L 592 181.2855909843062 L 596 184.36923367091592 L 600 187.48066414729078 L 604 190.60314342059974 L 608 193.71812469978084 L 612 196.80530563205383 L 616 199.84273462306905 L 620 202.80697105915743 L 624 205.6732978738345 L 628 208.41598354975636 L 632 211.00858935484 L 636 213.42431640898923 L 640 215.63638609539294 L 644 217.61844639440537 L 648 219.3449959517488 L 652 220.79181711529674 L 656 221.9364088005164 L 660 222.7584098833859 L 664 223.24000387571232 L 668 223.3662959104685 L 672 223.12565354800108 L 676 222.51000359663504 L 680 221.51507800737886 L 684 220.14060293178593 L 688 218.39042620029656 L 692 216.27257975799986 L 696 213.79927495550297 L 700 210.98683000236787 L 704 207.85553031614813 L 708 204.42942390790887 L 712 200.73605530224245 L 716 196.80614276452508 L 720 192.6732047709149 L 724 188.3731426806043 L 728 183.9437874318076 L 732 179.42441876359703 L 736 174.85526595019218 L 740 170.27699931267696 L 744 165.73022184043387 L 748 161.25497011106748 L 752 156.89023334858845 L 756 152.6734989154582 L 760 148.64033180976682 L 764 144.82399485364172 L 768 141.25511523606252 L 772 137.9614019389162 L 776 134.9674173582105 L 780 132.2944051635101 L 784 129.96017514958618 L 788 127.97904455684622 L 792 126.36183410270516 L 796 125.11591580462712 L 800 124.2453086150102 L 804 123.75081695345379 L 808 123.63020643491966 L 812 123.87841047056492 L 816 124.48776097492865 L 820 125.44823615731201 L 824 126.74771831034427 L 828 128.3722546336348 L 832 130.30631443892503 L 836 132.53303656438078 L 840 135.03446146429457 L 844 137.79174321712924 L 848 140.78533758669425 L 852 143.99516325251545 L 856 147.40073436817238 L 860 150.98126368101185 L 864 154.71573652301674 L 868 158.58295703056208 L 872 162.5615689410122 L 876 166.63005421896048 L 880 170.766713559017 L 884 174.94963347312395 L 888 179.1566451796405 L 892 183.36528085428935 L 896 187.55273296928607 L 900 191.69582243120178 L 904 195.7709810297847 L 908 199.7542533335496 L 912 203.6213226226522 L 916 207.34756474929588 L 920 210.90813297875056 L 924 214.2780759119648 L 928 217.43248954890123 L 932 220.34670344789802 L 936 222.9964998002985 L 940 225.35836310211064 L 944 227.40975699679075 L 948 229.1294238161019 L 952 230.49770138890221 L 956 231.4968508481125 L 960 232.11138846874053 L 964 232.32841403600585 L 968 232.13792788967666 L 972 231.53312863159005 L 976 230.51068352606677 L 980 229.0709638705801 L 984 227.2182380644416 L 988 224.96081574910608 L 992 222.3111372226339 L 996 219.28580332577243 L 1000 215.90554213656932 L 1004 212.19511006905304 L 1008 208.18312632072897 L 1012 203.90184102222415 L 1016 199.3868388773805 L 1020 194.67668150936336 L 1024 189.8124931137212 L 1028 184.83749532916974 L 1032 179.79649843910045 L 1036 174.73535708155416 L 1040 169.70039954588617 L 1044 164.73784044743078 L 1048 159.89318707831848 L 1052 155.21065001919064 L 1056 150.73256865392668 L 1060 146.49886205416752 L 1064 142.54651529431828 L 1068 138.9091106283567 L 1072 135.6164121199034 L 1076 132.6940112845152 L 1080 130.16304010048788 L 1084 128.0399563982525 L 1088 126.33640517878185 L 1092 125.059157871215 L 1096 124.21012995403878 L 1100 123.78647576873327 L 1104 123.78075778617426 L 1108 124.18118608014223 L 1112 124.9719223534509 L 1116 126.13344158266605 L 1120 127.64294322633305 L 1124 129.47480300454305 L 1128 131.6010555256922 L 1132 133.99189752575933 L 1136 136.6162012074302 L 1140 139.44202712655658 L 1144 142.43712627173414 L 1148 145.5694214135805 L 1152 148.8074584525 L 1156 152.12081935097416 L 1160 155.4804892776141 L 1164 158.85917178987077 L 1168 162.23154721132516 L 1172 165.57447078571886 L 1176 168.86710867904316 L 1180 172.09101141735513 L 1184 175.23012585532663 L 1188 178.27074823296212 L 1192 181.20142226080947 L 1196 184.01278744469664 L 1200 186.6973839897933 L 1200 240 Z" fill="#0047f1" fill-opacity="1" stroke="none" />
<path d="M 0 240 L 0 224.5912568612794 L 4 227.72127006634474 L 8 230.6020565817554 L 12 233.2128535953496 L 16 235.5359179337117 L 20 237.55651645754938 L 24 239.26287078913015 L 28 240.646065129251 L 32 241.69992650203267 L 36 242.42088690540294 L 40 242.80783655098787 L 44 242.86197667474784 L 48 242.5866793313185 L 52 241.98736020773285 L 56 241.07136887546542 L 60 239.84789912241476 L 64 238.32792015343185 L 68 236.52412760670788 L 72 234.45091158996988 L 76 232.12433737642618 L 80 229.56213308900956 L 84 226.78367770468927 L 88 223.80998207663728 L 92 220.66365543314964 L 96 217.36884998350686 L 100 213.9511768395663 L 104 210.43758742712333 L 108 206.85621587520382 L 112 203.23617948115486 L 116 199.6073361879442 L 120 196 L 124 192.44461732017177 L 128 188.97140922380302 L 132 185.60998660685382 L 136 182.3889468671089 L 140 179.33546222119904 L 144 176.47487085605758 L 148 173.83028280525852 L 152 171.42221268773073 L 156 169.2682512253058 L 160 167.38278676168912 L 164 165.77678685297644 L 168 164.45764842165283 L 172 163.42912301256604 L 176 162.6913214269041 L 180 162.24079951834767 L 184 162.07072430431575 L 188 162.1711168715819 L 192 162.529165939779 L 196 163.12960348811794 L 200 163.9551316452223 L 204 164.9868881763217 L 208 166.20493645147357 L 212 167.58876480363622 L 216 169.11777972975682 L 220 170.77177747602425 L 224 172.5313791844005 L 228 174.37841594533435 L 232 176.29625176498988 L 236 178.27003455934576 L 240 180.28686776019228 L 244 182.33589787308838 L 248 184.40831626728334 L 252 186.49727649740595 L 256 188.59773144763415 L 260 190.70619744269192 L 264 192.82045508241126 L 268 194.93919883209125 L 272 197.06164925576482 L 276 199.18714314511445 L 280 201.31471762222395 L 284 203.44270454832338 L 288 205.56835124272374 L 292 207.68748261707458 L 296 209.7942183916225 L 300 211.88075713375147 L 304 213.93723651401734 L 308 215.95167649567236 L 312 217.91000925693277 L 316 219.79619659609435 L 320 221.5924324977546 L 324 223.27942555405616 L 328 224.83675314463693 L 332 226.2432767819177 L 336 227.47760591234896 L 340 228.518595802714 L 344 229.34586398990479 L 348 229.94030917000563 L 352 230.28461636491113 L 356 230.36373272805415 L 360 230.16529941051118 L 364 229.6800264606348 L 368 228.90199971254688 L 372 227.82891095416858 L 376 226.46220526455986 L 380 224.8071421750623 L 384 222.87277013595667 L 388 220.6718165559534 L 392 218.22049832465171 L 396 215.5382601337621 L 400 212.6474499973147 L 404 209.57294306365299 L 408 206.3417260581041 L 412 202.98245545814382 L 416 199.52500276509417 L 420 196.00000000000003 L 424 192.43839783773842 L 428 188.87104764229633 L 432 185.32831713369472 L 436 181.83974757353212 L 440 178.43375828302882 L 444 175.13740209407533 L 448 171.9761730735879 L 452 168.9738656483373 L 456 166.1524821818627 L 460 163.53218420065514 L 464 161.131280906762 L 468 158.9662474084293 L 472 157.0517642939717 L 476 155.4007697941556 L 480 154.02451583420827 L 484 152.93261975888382 L 488 152.1331043955856 L 492 151.6324203573685 L 496 151.43544602081192 L 500 151.54546237195788 L 504 151.96410181598344 L 508 152.69127200618564 L 512 153.7250576758704 L 516 155.06160526473735 L 520 156.69499673608016 L 524 158.61712030763294 L 528 160.81754680366822 L 532 163.28342092956927 L 536 165.99937693932 L 540 168.94748789557016 L 544 172.10725701390132 L 548 175.45565845875717 L 552 178.96723345694267 L 556 182.61424577053418 L 560 186.36689849340422 L 564 190.19361188463802 L 568 194.06135961638435 L 572 197.93605848631404 L 576 201.78300442001463 L 580 205.56734555771186 L 584 209.2545814675929 L 588 212.81107612973585 L 592 216.2045713522708 L 596 219.4046867614174 L 600 222.3833924784497 L 604 225.1154410696055 L 608 227.5787463202883 L 612 229.7546978142294 L 616 231.62840214498064 L 620 233.18884378803853 L 624 234.42896113966478 L 628 235.345635894342 L 632 235.93959669007188 L 636 236.21524069837596 L 640 236.1803794724396 L 644 235.84591779436067 L 648 235.2254763901875 L 652 234.33497112938522 L 656 233.19216262748557 L 660 231.81619097736254 L 664 230.22711061471324 L 668 228.44544006550663 L 672 226.4917405362308 L 676 224.38623602052314 L 680 222.14848585594532 L 684 219.79711853716674 L 688 217.3496331562779 L 692 214.82227218873476 L 696 212.22996657416837 L 700 209.58635125910092 L 704 206.90384667812774 L 708 204.1937991525338 L 712 201.4666709744527 L 716 198.7322691034827 L 720 196.00000000000009 L 724 193.27913720738158 L 728 190.57908790740964 L 732 187.9096448227192 L 736 185.28121052022232 L 740 182.70498235275306 L 744 180.19308791630152 L 748 177.75866293335426 L 752 175.41586582033938 L 756 173.1798257683782 L 760 171.06652386248004 L 764 169.092609481365 L 768 167.2751568540313 L 772 165.63136909911492 L 776 164.17823924538447 L 780 162.93217954353648 L 784 161.90863176194193 L 788 161.12167205986185 L 792 160.5836244171923 L 796 160.30469645610538 L 800 160.2926508234514 L 804 160.55252413989524 L 808 161.08640390786456 L 812 161.89327176802868 L 816 162.96891918045122 L 820 164.30593907070127 L 824 165.89379432024208 L 828 167.71896129596055 L 832 169.7651440079191 L 836 172.01355205602164 L 840 174.44323336680992 L 844 177.03145091179417 L 848 179.7540912055316 L 852 182.58609145564364 L 856 185.50187181041568 L 860 188.4757592353565 L 864 191.482390141057 L 868 194.4970799542515 L 872 197.49614932708795 L 876 200.45719855459475 L 880 203.35932394132092 L 884 206.18327223817232 L 888 208.9115317648279 L 892 211.52836134314367 L 896 214.01976059379768 L 900 216.3733873970839 L 904 218.57843030160447 L 908 220.6254453049645 L 912 222.5061676655501 L 916 224.2133101875139 L 920 225.74035972365763 L 924 227.08138345361007 L 928 228.2308558275993 L 932 229.1835159482588 L 936 229.93426364116482 L 940 230.4781006019449 L 944 230.81012088003112 L 948 230.9255526530153 L 952 230.81985085461073 L 956 230.48883784017738 L 960 229.92888700278135 L 964 229.13714218160032 L 968 228.11176391692152 L 972 226.85219217446723 L 976 225.3594141446312 L 980 223.6362251612821 L 984 221.68747070387667 L 988 219.52025785048863 L 992 217.14412542361293 L 996 214.57116338221473 L 1000 211.8160737121854 L 1004 208.89616708751674 L 1008 205.8312918378351 L 1012 202.64369417650516 L 1016 199.35781112328797 L 1020 196.00000000000003 L 1024 192.59821069167572 L 1028 189.1816089593477 L 1032 185.78016088241563 L 1036 182.42418992916012 L 1040 179.1439191484033 L 1044 175.9690115054766 L 1048 172.92812143161495 L 1052 170.04847021679927 L 1056 167.35545697004065 L 1060 164.87231553464534 L 1064 162.61982603241682 L 1068 160.6160876881506 L 1072 158.8763573342515 L 1076 157.41295560387948 L 1080 156.23524038401993 L 1084 155.34964471325736 L 1088 154.7597740665372 L 1092 154.46655595869342 L 1096 154.46843309843257 L 1100 154.76159000073625 L 1104 155.34020206907175 L 1108 156.19669572301822 L 1112 157.32200818705053 L 1116 158.7058360682779 L 1120 160.3368628119205 L 1124 162.20295649215447 L 1128 164.2913311150978 L 1132 166.588666608388 L 1136 169.0811848648518 L 1140 171.75468150497372 L 1144 174.59451532851145 L 1148 177.58555964334468 L 1152 180.71212169629402 L 1156 183.95783819994955 L 1160 187.30555637564407 L 1164 190.73721095313988 L 1168 194.23370813598095 L 1172 197.77482762925695 L 1176 201.33915342442705 L 1180 204.9040431541092 L 1184 208.4456444980216 L 1188 211.93896538744727 L 1192 215.3580026841398 L 1196 218.6759316789744 L 1200 221.86535625549377 L 1200 240 Z" fill="#003ed2" fill-opacity="1" stroke="none" />
</svg>